<svg width="741" height="344" viewBox="0 0 741 344" fill="none" xmlns="http://www.w3.org/2000/svg">
<path opacity="0.025641" d="M313.011 599.289C262.164 521.997 173.86 345.13 227.418 255.993C280.977 166.857 212.293 68.6819 171.256 30.7366L253.71 -106.491" stroke="#A9A994"/>
<path opacity="0.0512821" d="M328.505 600.734C274.991 525.264 180.568 351.586 230.983 260.635C281.398 169.683 209.329 73.9652 166.993 37.4752L244.609 -102.547" stroke="#A9A994"/>
<path opacity="0.0769231" d="M343.923 601.757C287.809 528.201 187.381 357.924 234.592 265.269C281.802 172.613 206.437 79.4687 162.853 44.4784L235.534 -98.167" stroke="#A9A994"/>
<path opacity="0.102564" d="M359.253 602.362C300.605 530.809 194.296 364.141 238.244 269.894C282.192 175.647 203.622 85.1898 158.843 51.742L226.502 -93.3531" stroke="#A9A994"/>
<path opacity="0.128205" d="M374.477 602.551C313.368 533.088 201.308 370.232 241.94 274.509C282.572 178.786 200.892 91.1257 154.974 59.2609L217.528 -88.1071" stroke="#A9A994"/>
<path opacity="0.153846" d="M389.584 602.329C326.088 535.041 208.412 376.195 245.678 279.112C282.945 182.029 198.256 97.273 151.253 67.0302L208.626 -82.4311" stroke="#A9A994"/>
<path opacity="0.179487" d="M404.557 601.7C338.751 536.669 215.603 382.026 249.459 283.702C283.315 185.378 195.72 103.629 147.69 75.0447L199.812 -76.3278" stroke="#A9A994"/>
<path opacity="0.205128" d="M419.384 600.668C351.349 537.974 222.879 387.723 253.283 288.277C283.686 188.831 193.291 110.189 144.294 83.2987L191.101 -69.8007" stroke="#A9A994"/>
<path opacity="0.230769" d="M434.049 599.24C363.868 538.958 230.233 393.283 257.147 292.836C284.062 192.39 190.977 116.95 141.071 91.7861L182.506 -62.8535" stroke="#A9A994"/>
<path opacity="0.25641" d="M448.541 597.421C376.298 539.625 237.66 398.702 261.053 297.378C284.445 196.053 188.785 123.908 138.031 100.501L174.044 -55.4906" stroke="#A9A994"/>
<path opacity="0.282051" d="M462.843 595.217C388.627 539.978 245.156 403.979 264.998 301.9C284.84 199.82 186.72 131.058 135.18 109.436L165.728 -47.7169" stroke="#A9A994"/>
<path opacity="0.307692" d="M476.945 592.635C400.846 540.02 252.716 409.111 268.984 306.401C285.251 203.692 184.791 138.396 132.528 118.586L157.572 -39.5377" stroke="#A9A994"/>
<path opacity="0.333333" d="M490.831 589.683C412.943 539.755 260.334 414.096 273.008 310.881C285.681 207.667 183.003 145.916 130.08 127.943L149.591 -30.9588" stroke="#A9A994"/>
<path opacity="0.358974" d="M504.491 586.368C424.907 539.189 268.006 418.932 277.069 315.338C286.133 211.744 181.363 153.614 127.845 137.499L141.798 -21.9867" stroke="#A9A994"/>
<path opacity="0.384615" d="M517.911 582.698C436.729 538.325 275.727 423.618 281.169 319.77C286.611 215.923 179.876 161.485 125.829 147.247L134.207 -12.6281" stroke="#A9A994"/>
<path opacity="0.410256" d="M531.078 578.683C448.397 537.17 283.489 428.151 285.304 324.177C287.119 220.203 178.549 169.523 124.037 157.18L126.831 -2.89007" stroke="#A9A994"/>
<path opacity="0.435897" d="M543.981 574.33C459.902 535.728 291.29 432.53 289.475 328.556C287.661 224.582 177.388 177.723 122.479 167.289L119.685 7.21911" stroke="#A9A994"/>
<path opacity="0.461538" d="M556.609 569.649C471.234 534.005 299.123 436.755 293.681 332.908C288.238 229.06 176.398 186.078 121.158 177.567L112.779 17.6918" stroke="#A9A994"/>
<path opacity="0.487179" d="M568.95 564.651C482.383 532.008 306.983 440.823 297.919 337.229C288.856 233.635 175.584 194.582 120.08 188.004L106.127 28.519" stroke="#A9A994"/>
<path opacity="0.512821" d="M580.993 559.344C493.339 529.743 314.864 444.735 302.191 341.521C289.518 238.306 174.951 203.229 119.252 198.593L99.7413 39.6917" stroke="#A9A994"/>
<path opacity="0.538462" d="M592.727 553.741C504.094 527.216 322.761 448.49 306.493 345.78C290.225 243.071 174.504 212.014 118.678 209.324L93.6332 51.2005" stroke="#A9A994"/>
<path opacity="0.564103" d="M604.143 547.852C514.638 524.437 330.668 452.086 310.826 350.007C290.984 247.928 174.249 220.928 118.362 220.189L87.8149 63.0354" stroke="#A9A994"/>
<path opacity="0.589744" d="M615.231 541.688C524.963 521.41 338.58 455.524 315.187 354.2C291.795 252.875 174.189 229.966 118.311 231.178L82.2972 75.1861" stroke="#A9A994"/>
<path opacity="0.615385" d="M625.981 535.26C535.06 518.146 346.491 458.804 319.577 358.358C292.662 257.912 174.329 239.121 118.527 242.282L77.0911 87.642" stroke="#A9A994"/>
<path opacity="0.641026" d="M636.384 528.582C544.922 514.65 354.397 461.926 323.993 362.48C293.589 263.035 174.672 248.385 119.014 253.491L72.2071 100.392" stroke="#A9A994"/>
<path opacity="0.666667" d="M646.432 521.664C554.539 510.933 362.29 464.891 328.434 366.566C294.578 268.242 175.223 257.752 119.777 264.797L67.6549 113.425" stroke="#A9A994"/>
<path opacity="0.692308" d="M656.116 514.52C563.905 507.003 370.166 467.698 332.899 370.615C295.633 273.532 175.983 267.213 120.817 276.19L63.4444 126.728" stroke="#A9A994"/>
<path opacity="0.717949" d="M665.429 507.162C573.012 502.868 378.019 470.348 337.387 374.625C296.755 278.902 176.958 276.763 122.139 287.659L59.585 140.291" stroke="#A9A994"/>
<path opacity="0.74359" d="M674.364 499.604C581.853 498.537 385.845 472.843 341.897 378.596C297.949 284.349 178.15 286.392 123.745 299.195L56.0856 154.1" stroke="#A9A994"/>
<path opacity="0.769231" d="M682.914 491.859C590.422 494.021 393.636 475.182 346.426 382.527C299.215 289.871 179.561 296.094 125.636 310.788L52.9541 168.142" stroke="#A9A994"/>
<path opacity="0.794872" d="M691.073 483.939C598.713 489.328 401.389 477.369 350.974 386.417C300.558 295.466 181.194 305.861 127.814 322.428L50.1988 182.406" stroke="#A9A994"/>
<path opacity="0.820513" d="M698.834 475.86C606.718 484.469 409.097 479.404 355.539 390.267C301.98 301.13 183.051 315.685 130.282 334.104L47.827 196.876" stroke="#A9A994"/>
<path opacity="0.846154" d="M706.193 467.635C614.434 479.454 416.757 481.288 360.12 394.075C303.483 306.862 185.135 325.558 133.04 345.808L45.8462 211.541" stroke="#A9A994"/>
<path opacity="0.871795" d="M713.144 459.278C621.853 474.292 424.361 483.024 364.715 397.841C305.068 312.657 187.445 335.472 136.089 357.528L44.2622 226.386" stroke="#A9A994"/>
<path opacity="0.897436" d="M719.684 450.804C628.973 468.995 431.905 484.614 369.322 401.564C306.739 318.514 189.984 345.42 139.429 369.254L43.0813 241.397" stroke="#A9A994"/>
<path opacity="0.923077" d="M725.807 442.226C635.786 463.572 439.384 486.059 373.941 405.244C308.498 324.428 192.752 355.393 143.06 380.977L42.309 256.56" stroke="#A9A994"/>
<path opacity="0.948718" d="M731.512 433.56C642.291 458.035 446.793 487.362 378.569 408.88C310.346 330.398 195.752 365.383 146.982 392.686L41.9508 271.861" stroke="#A9A994"/>
<path opacity="0.974359" d="M736.796 424.821C648.483 452.394 454.127 488.526 383.206 412.473C312.286 336.42 198.982 375.383 151.195 404.371L42.0109 287.285" stroke="#A9A994"/>
</svg>
