<svg width="148" height="150" viewBox="0 0 148 150" fill="#FFFFFF" xmlns="http://www.w3.org/2000/svg">
<path d="M140.252 81.3055L139.562 81.2337L139.895 78.0343L140.585 78.1061L140.252 81.3055ZM146.276 78.867L139.878 78.2013L139.966 77.3531L146.365 78.0188L146.276 78.867Z" />
<path d="M140.737 93.8534L140.346 93.7413C139.882 93.6081 139.482 93.4307 139.148 93.209C138.813 92.9874 138.548 92.7306 138.353 92.4386C138.158 92.1467 138.036 91.8283 137.988 91.4836C137.939 91.1416 137.968 90.7823 138.076 90.4057C138.181 90.0405 138.345 89.7244 138.569 89.4576C138.792 89.1936 139.064 88.9867 139.386 88.8369C139.707 88.69 140.069 88.6084 140.472 88.5922C140.875 88.5761 141.309 88.6346 141.773 88.7677L142.164 88.8798C142.628 89.013 143.026 89.1914 143.357 89.4151C143.69 89.6424 143.954 89.9035 144.148 90.1982C144.345 90.4938 144.468 90.8126 144.517 91.1545C144.566 91.4993 144.537 91.8543 144.433 92.2196C144.325 92.5962 144.159 92.9165 143.936 93.1805C143.713 93.4473 143.439 93.6524 143.116 93.7957C142.795 93.9426 142.434 94.0214 142.033 94.0319C141.633 94.0461 141.202 93.9865 140.737 93.8534ZM140.579 92.9301L140.978 93.0446C141.346 93.1501 141.683 93.2053 141.988 93.2101C142.292 93.2177 142.561 93.1769 142.795 93.0877C143.029 92.9985 143.226 92.8634 143.385 92.6822C143.544 92.504 143.661 92.2832 143.736 92.0198C143.809 91.765 143.826 91.52 143.786 91.2849C143.745 91.0526 143.65 90.8352 143.5 90.6328C143.348 90.4331 143.143 90.2531 142.882 90.0926C142.622 89.9321 142.308 89.799 141.939 89.6935L141.54 89.579C141.169 89.4726 140.829 89.418 140.521 89.4153C140.215 89.4134 139.943 89.458 139.706 89.5492C139.47 89.644 139.273 89.7792 139.116 89.9546C138.957 90.1329 138.842 90.3495 138.769 90.6043C138.692 90.8705 138.674 91.1211 138.714 91.3562C138.754 91.5914 138.849 91.8073 139.001 92.0041C139.155 92.2046 139.363 92.3822 139.625 92.537C139.89 92.6927 140.208 92.8237 140.579 92.9301Z" />
<path d="M140.642 103.618L134.865 100.785L135.241 100.02L141.017 102.852L140.642 103.618ZM136.857 104.764L136.23 104.456L137.498 101.87L138.125 102.177L136.857 104.764ZM139.263 106.43L138.636 106.123L140.097 103.144L140.723 103.451L139.263 106.43Z" />
<path d="M134.235 115.403L128.999 111.666L129.487 110.982L134.723 114.72L134.235 115.403ZM133.034 117.086L132.466 116.68L135.354 112.635L135.922 113.04L133.034 117.086Z" />
<path d="M121.599 129.947L117.639 124.876L118.312 124.351L122.271 129.422L121.599 129.947ZM117.693 129.325L117.264 128.774L119.534 127.001L119.964 127.552L117.693 129.325ZM119.13 131.875L118.7 131.325L121.316 129.282L121.745 129.833L119.13 131.875Z" />
<path d="M109.506 138.399L108.759 138.8L106.699 134.966C106.47 134.541 106.374 134.136 106.412 133.751C106.449 133.367 106.587 133.019 106.824 132.707C107.06 132.4 107.361 132.148 107.727 131.951C108.111 131.745 108.496 131.628 108.883 131.601C109.268 131.578 109.628 131.659 109.961 131.844C110.292 132.031 110.572 132.337 110.801 132.762L112.861 136.596L112.118 136.995L110.058 133.162C109.899 132.866 109.713 132.651 109.501 132.518C109.289 132.384 109.06 132.323 108.815 132.334C108.568 132.347 108.315 132.423 108.055 132.562C107.793 132.703 107.59 132.872 107.445 133.07C107.298 133.27 107.222 133.495 107.216 133.745C107.21 133.996 107.287 134.269 107.446 134.565L109.506 138.399Z" />
<path d="M101.427 142.513L99.4031 143.175C98.944 143.326 98.5334 143.383 98.1712 143.346C97.8062 143.311 97.4962 143.183 97.2412 142.963C96.9843 142.746 96.7908 142.439 96.6606 142.042C96.5689 141.762 96.5424 141.487 96.5811 141.217C96.6179 140.951 96.716 140.702 96.8756 140.47C97.0333 140.241 97.2463 140.04 97.5145 139.865L97.7124 139.703L99.6146 139.08L99.8389 139.736L98.4028 140.207C98.1117 140.302 97.886 140.432 97.7259 140.596C97.5667 140.762 97.4665 140.949 97.4253 141.154C97.3842 141.36 97.398 141.568 97.4668 141.778C97.5438 142.013 97.6574 142.204 97.8075 142.35C97.9577 142.496 98.1477 142.584 98.3776 142.614C98.6057 142.648 98.8751 142.614 99.1858 142.512L100.399 142.114L98.6142 136.664L99.4246 136.399L101.427 142.513ZM95.8512 137.569L98.2454 139.854L97.4027 140.134L95.0027 137.903L94.9862 137.852L95.8512 137.569Z" />
<path d="M84.3462 146.99L83.4768 140.616L84.3261 140.5L88.2057 144.979L87.5351 140.063L88.3801 139.947L89.2495 146.322L88.4046 146.437L84.51 141.947L85.1824 146.876L84.3462 146.99Z" />
<path d="M74.8714 147.789L75.0294 141.357L75.8819 141.378L75.7239 147.81L74.8714 147.789Z" />
<path d="M63.8375 147.08L64.9449 140.742L65.7719 140.887L64.6645 147.224L63.8375 147.08ZM61.8005 146.724L61.9207 146.036L66.8173 146.892L66.6972 147.579L61.8005 146.724Z" />
<path d="M50.9592 144.023L50.1606 143.737L51.63 139.64C51.7932 139.186 52.0301 138.843 52.3409 138.614C52.6517 138.384 53.0022 138.253 53.3924 138.221C53.7789 138.191 54.1676 138.246 54.5585 138.386C54.9689 138.533 55.3136 138.741 55.5926 139.01C55.8678 139.281 56.0483 139.603 56.134 139.974C56.2169 140.345 56.1768 140.758 56.0137 141.213L54.5443 145.309L53.7499 145.024L55.2193 140.928C55.3327 140.612 55.3679 140.33 55.3251 140.083C55.2822 139.836 55.1747 139.626 55.0026 139.451C54.8277 139.276 54.6016 139.138 54.3243 139.039C54.0442 138.938 53.7823 138.901 53.5386 138.926C53.2921 138.95 53.0738 139.044 52.8837 139.208C52.6937 139.371 52.542 139.611 52.4286 139.927L50.9592 144.023Z"/>
<path d="M42.5224 140.784L40.6732 139.727C40.2538 139.488 39.9361 139.221 39.7201 138.928C39.5016 138.634 39.3886 138.318 39.3809 137.981C39.3692 137.646 39.4671 137.296 39.6746 136.933C39.8207 136.677 40.0069 136.473 40.233 136.321C40.4552 136.17 40.7058 136.075 40.985 136.038C41.2601 136.002 41.5524 136.025 41.8618 136.106L42.115 136.144L43.8529 137.137L43.5164 137.744L42.2044 136.994C41.9384 136.842 41.6909 136.762 41.4618 136.753C41.2312 136.747 41.0259 136.798 40.8458 136.905C40.6657 137.012 40.5208 137.162 40.4112 137.354C40.2884 137.569 40.2232 137.781 40.2156 137.99C40.2079 138.2 40.27 138.4 40.4019 138.59C40.5298 138.782 40.7357 138.959 41.0196 139.121L42.1283 139.755L44.9736 134.775L45.714 135.198L42.5224 140.784ZM42.4493 133.333L42.3606 136.641L41.5873 136.204L41.6327 132.927L41.659 132.881L42.4493 133.333Z" />
<path d="M32.0929 127.243L32.5351 126.709L35.16 128.88L34.7178 129.415L32.0929 127.243ZM30.9265 133.728L35.0272 128.77L35.6843 129.314L31.5836 134.271L30.9265 133.728ZM30.5447 129.822L30.9869 129.287L33.2646 131.172L32.8224 131.706L30.5447 129.822ZM28.4684 131.694L28.9134 131.156L31.5043 133.299L31.0593 133.837L28.4684 131.694Z" />
<path d="M18.7307 114.358C18.6062 114.442 18.5095 114.536 18.4407 114.639C18.3677 114.742 18.3243 114.867 18.3105 115.015C18.295 115.161 18.3078 115.34 18.3491 115.554C18.3887 115.765 18.4567 116.022 18.5532 116.322C18.6531 116.639 18.7271 116.935 18.7752 117.212C18.8209 117.49 18.8326 117.747 18.8102 117.983C18.7879 118.218 18.7233 118.431 18.6166 118.62C18.5098 118.809 18.3527 118.974 18.1451 119.114C17.9376 119.254 17.7171 119.341 17.4836 119.374C17.2502 119.407 17.0152 119.388 16.7786 119.317C16.538 119.245 16.3061 119.122 16.0829 118.949C15.8597 118.777 15.6558 118.553 15.4712 118.28C15.201 117.88 15.0488 117.488 15.0148 117.106C14.9767 116.723 15.0315 116.375 15.1792 116.062C15.3245 115.751 15.5363 115.501 15.8146 115.314L16.2892 116.017C16.089 116.152 15.9408 116.314 15.8447 116.503C15.7461 116.694 15.7114 116.906 15.7405 117.139C15.7671 117.373 15.8703 117.623 16.0499 117.889C16.2196 118.141 16.3976 118.323 16.5837 118.435C16.7698 118.548 16.9547 118.601 17.1385 118.594C17.3206 118.585 17.4947 118.524 17.6607 118.412C17.773 118.336 17.8599 118.244 17.9214 118.135C17.9788 118.025 18.0128 117.894 18.0233 117.741C18.0322 117.586 18.0169 117.408 17.9774 117.207C17.9362 117.004 17.872 116.772 17.7847 116.511C17.6658 116.15 17.5847 115.825 17.5414 115.534C17.498 115.244 17.4945 114.983 17.5308 114.752C17.5629 114.521 17.639 114.315 17.7589 114.135C17.8747 113.953 18.0363 113.793 18.2439 113.653C18.4612 113.506 18.6874 113.417 18.9225 113.387C19.1576 113.356 19.3926 113.38 19.6276 113.46C19.8625 113.539 20.0916 113.671 20.3149 113.854C20.534 114.037 20.7384 114.268 20.9279 114.549C21.0943 114.796 21.2241 115.062 21.3173 115.347C21.4087 115.63 21.452 115.915 21.4471 116.203C21.4406 116.488 21.3768 116.757 21.2557 117.009C21.1305 117.261 20.9348 117.476 20.6687 117.656L20.1941 116.953C20.3772 116.829 20.5108 116.688 20.5948 116.528C20.6764 116.37 20.7188 116.201 20.7218 116.021C20.7233 115.839 20.692 115.655 20.628 115.471C20.56 115.286 20.4683 115.108 20.3529 114.937C20.1865 114.691 20.0114 114.505 19.8277 114.38C19.644 114.255 19.459 114.192 19.2727 114.19C19.0847 114.185 18.9041 114.241 18.7307 114.358Z" />
<path d="M10.8837 104.895L11.518 104.614L12.9277 107.797L12.2934 108.078L10.8837 104.895ZM9.7106 109.077L15.593 106.472L15.9383 107.252L10.0559 109.857L9.7106 109.077ZM8.05401 105.336L13.9365 102.731L14.2799 103.507L8.39749 106.111L8.05401 105.336Z" />
<path d="M6.58611 91.9383L6.98183 91.8453C7.4521 91.7348 7.88744 91.6945 8.28785 91.7244C8.68827 91.7543 9.0449 91.849 9.35774 92.0085C9.67059 92.1679 9.93223 92.3863 10.1427 92.6637C10.3524 92.9381 10.5021 93.2661 10.5918 93.6474C10.6788 94.0174 10.6898 94.3733 10.625 94.7154C10.5595 95.0546 10.4229 95.3681 10.2152 95.656C10.0068 95.941 9.73072 96.1889 9.38693 96.3999C9.04314 96.6108 8.6361 96.7715 8.16583 96.8821L7.77012 96.9751C7.29984 97.0857 6.8656 97.1242 6.46738 97.0907C6.06562 97.055 5.70798 96.956 5.39446 96.7937C5.07807 96.6321 4.81499 96.414 4.60523 96.1395C4.39479 95.8622 4.24609 95.5386 4.15913 95.1687C4.06948 94.7873 4.05741 94.427 4.12293 94.0878C4.18777 93.7458 4.32614 93.4334 4.53805 93.1505C4.74642 92.8655 5.02317 92.6204 5.36831 92.4152C5.7099 92.2078 6.11584 92.0489 6.58611 91.9383ZM7.17495 92.6668L6.77063 92.7619C6.39785 92.8495 6.07719 92.9657 5.80864 93.1106C5.53941 93.2525 5.3245 93.4196 5.16388 93.6116C5.00327 93.8037 4.89772 94.0177 4.84724 94.2534C4.79608 94.4864 4.80185 94.7362 4.86454 95.0028C4.92521 95.2609 5.03032 95.4828 5.17989 95.6686C5.32879 95.8514 5.51826 95.9945 5.7483 96.0978C5.97767 96.1982 6.24517 96.2548 6.55079 96.2677C6.85642 96.2806 7.19562 96.2432 7.56839 96.1556L7.97271 96.0605C8.34835 95.9722 8.67155 95.8539 8.94229 95.7055C9.21017 95.5578 9.42551 95.3862 9.58832 95.1906C9.74758 94.9927 9.85313 94.7788 9.90496 94.5488C9.95612 94.3158 9.95136 94.0703 9.89069 93.8123C9.82733 93.5427 9.72086 93.3151 9.57129 93.1293C9.42172 92.9436 9.23259 92.802 9.0039 92.7044C8.77166 92.6047 8.50341 92.5512 8.19913 92.5441C7.89199 92.5376 7.55059 92.5785 7.17495 92.6668Z"/>
<path d="M5.71277 81.6759L5.79712 83.3926L5.10425 83.4267L5.0199 81.71C5.00356 81.3775 4.93738 81.1109 4.82134 80.9102C4.7053 80.7094 4.55082 80.5666 4.3579 80.4817C4.16484 80.3939 3.94768 80.3559 3.70642 80.3677C3.48576 80.3786 3.28073 80.4373 3.09132 80.5439C2.90177 80.6476 2.75321 80.8053 2.64564 81.0171C2.53513 81.2289 2.48805 81.5011 2.50438 81.8336L2.57898 83.3517L8.30729 83.0702L8.34914 83.922L1.92355 84.2377L1.8071 81.8678C1.78325 81.3824 1.84693 80.9678 1.99815 80.6242C2.14937 80.2805 2.36929 80.0146 2.65792 79.8264C2.9436 79.6384 3.27621 79.5351 3.65574 79.5164C4.06764 79.4962 4.42349 79.5657 4.72329 79.725C5.02309 79.8842 5.25772 80.1278 5.42719 80.4557C5.59372 80.7837 5.68891 81.1905 5.71277 81.6759Z" />
<path d="M7.74815 68.0904L8.43813 68.1621L8.10528 71.3615L7.4153 71.2898L7.74815 68.0904ZM1.72385 70.5288L8.12266 71.1945L8.03442 72.0427L1.63561 71.377L1.72385 70.5288Z" />
<path d="M7.26315 55.5424L7.6539 55.6545C8.11827 55.7876 8.51785 55.9651 8.85265 56.1867C9.18745 56.4084 9.45242 56.6652 9.64756 56.9571C9.84269 57.2491 9.96436 57.5674 10.0126 57.9122C10.0616 58.2541 10.0321 58.6134 9.92408 58.99C9.81932 59.3553 9.65513 59.6713 9.43151 59.9381C9.2087 60.2021 8.93639 60.409 8.61456 60.5588C8.29355 60.7058 7.93154 60.7873 7.52852 60.8035C7.1255 60.8197 6.69181 60.7612 6.22744 60.628L5.83669 60.5159C5.37232 60.3828 4.97456 60.2043 4.6434 59.9806C4.31023 59.7533 4.04648 59.4923 3.85215 59.1975C3.655 58.9019 3.53191 58.5832 3.4829 58.2412C3.43469 57.8964 3.46297 57.5414 3.56773 57.1761C3.67574 56.7996 3.84115 56.4793 4.06396 56.2153C4.28758 55.9484 4.5609 55.7434 4.88393 55.6001C5.20494 55.4531 5.56615 55.3744 5.96754 55.3639C6.36691 55.3497 6.79878 55.4092 7.26315 55.5424ZM7.42123 56.4657L7.02199 56.3512C6.65389 56.2456 6.31731 56.1904 6.01223 56.1857C5.70796 56.1781 5.43885 56.2189 5.20489 56.3081C4.97093 56.3973 4.77435 56.5324 4.61515 56.7135C4.45676 56.8918 4.33981 57.1126 4.26428 57.3759C4.19119 57.6308 4.17456 57.8757 4.21438 58.1109C4.25501 58.3432 4.35048 58.5605 4.50079 58.763C4.65192 58.9626 4.85769 59.1427 5.1181 59.3032C5.37851 59.4637 5.69277 59.5967 6.06087 59.7023L6.46011 59.8168C6.83104 59.9232 7.17086 59.9777 7.47958 59.9805C7.78547 59.9824 8.05722 59.9378 8.29482 59.8466C8.53041 59.7517 8.72699 59.6166 8.88456 59.4411C9.04295 59.2628 9.15869 59.0463 9.23178 58.7914C9.30811 58.5253 9.32637 58.2746 9.28655 58.0395C9.24673 57.8044 9.15086 57.5884 8.99892 57.3916C8.84496 57.1912 8.63696 57.0136 8.37493 56.8587C8.11006 56.7031 7.79216 56.5721 7.42123 56.4657Z"/>
<path d="M7.35865 45.7782L13.135 48.6105L12.7596 49.3761L6.98323 46.5439L7.35865 45.7782ZM11.1438 44.6323L11.7706 44.9396L10.5024 47.5263L9.87552 47.219L11.1438 44.6323ZM8.73782 42.9654L9.36465 43.2728L7.90379 46.2522L7.27696 45.9448L8.73782 42.9654Z" />
<path d="M13.7649 33.9928L19.0013 37.7302L18.5135 38.4135L13.2771 34.6761L13.7649 33.9928ZM14.9662 32.3097L15.5344 32.7153L12.6467 36.7612L12.0784 36.3557L14.9662 32.3097Z" />
<path d="M26.4014 19.449L30.3609 24.5195L29.6887 25.0444L25.7293 19.9738L26.4014 19.449ZM30.307 20.0712L30.7366 20.6214L28.466 22.3945L28.0364 21.8442L30.307 20.0712ZM28.8705 17.5209L29.3002 18.0712L26.6848 20.1134L26.2551 19.5632L28.8705 17.5209Z" />
<path d="M38.4945 10.9971L39.2418 10.5956L41.3018 14.4294C41.5305 14.855 41.6261 15.26 41.5886 15.6446C41.5512 16.0293 41.4138 16.3773 41.1765 16.6887C40.9404 16.9961 40.6395 17.2481 40.2736 17.4447C39.8896 17.6511 39.5042 17.7679 39.1175 17.795C38.7321 17.8182 38.3725 17.7372 38.0389 17.552C37.7079 17.3654 37.4281 17.0593 37.1994 16.6337L35.1394 12.7999L35.8828 12.4004L37.9428 16.2343C38.1018 16.5301 38.2873 16.7447 38.4995 16.8782C38.7116 17.0116 38.9401 17.0728 39.1849 17.0616C39.4323 17.0491 39.6858 16.9731 39.9452 16.8337C40.2073 16.6928 40.4106 16.5234 40.555 16.3254C40.702 16.1261 40.7784 15.9011 40.7842 15.6505C40.79 15.3999 40.7135 15.1268 40.5545 14.8309L38.4945 10.9971Z" />
<path d="M46.5733 6.88324L48.5973 6.22036C49.0564 6.06999 49.467 6.01299 49.8292 6.04935C50.1941 6.0848 50.5041 6.21264 50.7591 6.43289C51.016 6.64941 51.2096 6.95643 51.3398 7.35393C51.4314 7.63387 51.458 7.90881 51.4193 8.17874C51.3825 8.44496 51.2843 8.6941 51.1247 8.92614C50.967 9.15447 50.7541 9.35595 50.4858 9.53061L50.2879 9.69305L48.3858 10.3161L48.1615 9.65956L49.5975 9.18921C49.8887 9.09386 50.1143 8.96416 50.2745 8.80012C50.4337 8.63328 50.5339 8.44704 50.575 8.24139C50.6161 8.03574 50.6023 7.82794 50.5335 7.61799C50.4565 7.38284 50.343 7.19222 50.1928 7.04612C50.0427 6.90001 49.8526 6.81192 49.6227 6.78184C49.3947 6.74804 49.1253 6.78203 48.8146 6.8838L47.601 7.28126L49.3862 12.7316L48.5757 12.997L46.5733 6.88324ZM52.1491 11.8267L49.755 9.54215L50.5976 9.26152L52.9976 11.493L53.0141 11.5433L52.1491 11.8267Z"/>
<path d="M63.6542 2.4054L64.5236 8.77972L63.6743 8.89557L59.7946 4.41679L60.4652 9.33326L59.6203 9.4485L58.7508 3.07417L59.5958 2.95893L63.4903 7.44904L62.818 2.51945L63.6542 2.4054Z" />
<path d="M73.129 1.60688L72.9709 8.03828L72.1184 8.01733L72.2765 1.58593L73.129 1.60688Z" />
<path d="M84.1628 2.31611L83.0554 8.65343L82.2284 8.50892L83.3358 2.1716L84.1628 2.31611ZM86.1998 2.67206L86.0796 3.35976L81.183 2.50411L81.3032 1.81641L86.1998 2.67206Z" />
<path d="M97.0412 5.3724L97.8397 5.65883L96.3703 9.7555C96.2072 10.2102 95.9702 10.5524 95.6594 10.782C95.3486 11.0116 94.9981 11.1425 94.6079 11.1747C94.2215 11.2051 93.8328 11.1501 93.4418 11.0099C93.0315 10.8627 92.6868 10.6546 92.4078 10.3855C92.1325 10.1147 91.9521 9.79333 91.8664 9.42149C91.7835 9.05064 91.8236 8.63786 91.9867 8.18313L93.4561 4.08647L94.2505 4.3714L92.781 8.46807C92.6677 8.78416 92.6324 9.06568 92.6753 9.31263C92.7181 9.55958 92.8256 9.77026 92.9978 9.94466C93.1727 10.1201 93.3988 10.2575 93.6761 10.3569C93.9561 10.4574 94.218 10.495 94.4618 10.4698C94.7083 10.4455 94.9266 10.3517 95.1166 10.1883C95.3067 10.0249 95.4584 9.78516 95.5718 9.46907L97.0412 5.3724Z" />
<path d="M105.478 8.61183L107.327 9.66841C107.747 9.90808 108.064 10.1744 108.28 10.4674C108.499 10.7619 108.612 11.0776 108.619 11.4145C108.631 11.7502 108.533 12.0997 108.326 12.4629C108.18 12.7186 107.993 12.9227 107.767 13.0751C107.545 13.2263 107.295 13.3206 107.015 13.3579C106.74 13.3941 106.448 13.3712 106.139 13.2894L105.885 13.2516L104.147 12.2586L104.484 11.6519L105.796 12.4016C106.062 12.5536 106.309 12.6339 106.539 12.6427C106.769 12.6489 106.974 12.5983 107.155 12.4909C107.335 12.3834 107.48 12.2338 107.589 12.042C107.712 11.8272 107.777 11.6151 107.785 11.4057C107.792 11.1964 107.73 10.9963 107.598 10.8056C107.471 10.6138 107.265 10.4368 106.981 10.2746L105.872 9.64105L103.027 14.6207L102.286 14.1976L105.478 8.61183ZM105.551 16.0631L105.64 12.7551L106.413 13.1918L106.368 16.4686L106.341 16.5147L105.551 16.0631Z"/>
<path d="M115.908 22.1525L115.466 22.687L112.841 20.5156L113.283 19.981L115.908 22.1525ZM117.074 15.6683L112.973 20.6254L112.316 20.0818L116.417 15.1248L117.074 15.6683ZM117.456 19.5739L117.014 20.1084L114.736 18.2243L115.178 17.6898L117.456 19.5739ZM119.532 17.7018L119.087 18.2397L116.496 16.0964L116.941 15.5585L119.532 17.7018Z"/>
<path d="M129.27 35.0377C129.394 34.9536 129.491 34.8599 129.56 34.7566C129.633 34.6541 129.676 34.5288 129.69 34.3809C129.706 34.2353 129.693 34.0557 129.652 33.8419C129.612 33.6305 129.544 33.3743 129.447 33.0734C129.348 32.757 129.274 32.4604 129.225 32.1838C129.18 31.9054 129.168 31.6485 129.19 31.4131C129.213 31.1777 129.277 30.9653 129.384 30.776C129.491 30.5866 129.648 30.4219 129.856 30.2819C130.063 30.1418 130.284 30.0552 130.517 30.022C130.751 29.9888 130.986 30.0079 131.222 30.0792C131.463 30.1514 131.695 30.2738 131.918 30.4466C132.141 30.6193 132.345 30.8424 132.529 31.1159C132.8 31.5163 132.952 31.9076 132.986 32.2897C133.024 32.6727 132.969 33.0206 132.821 33.3336C132.676 33.6449 132.464 33.8944 132.186 34.0823L131.711 33.3791C131.912 33.244 132.06 33.0818 132.156 32.8925C132.255 32.7016 132.289 32.4898 132.26 32.2571C132.234 32.0228 132.13 31.7726 131.951 31.5064C131.781 31.2549 131.603 31.073 131.417 30.9605C131.231 30.848 131.046 30.7951 130.862 30.8019C130.68 30.8111 130.506 30.8717 130.34 30.9838C130.228 31.0596 130.141 31.152 130.079 31.261C130.022 31.3708 129.988 31.5021 129.977 31.6549C129.968 31.8102 129.984 31.9882 130.023 32.189C130.064 32.3922 130.129 32.6243 130.216 32.8852C130.335 33.2456 130.416 33.5712 130.459 33.8618C130.503 34.1524 130.506 34.413 130.47 34.6436C130.438 34.875 130.362 35.0809 130.242 35.2613C130.126 35.4425 129.964 35.6032 129.757 35.7432C129.54 35.8899 129.313 35.9786 129.078 36.0094C128.843 36.0401 128.608 36.0157 128.373 35.9362C128.138 35.8566 127.909 35.7252 127.686 35.5418C127.467 35.3592 127.262 35.1276 127.073 34.8468C126.906 34.6002 126.777 34.3342 126.683 34.0488C126.592 33.7658 126.549 33.4805 126.554 33.1929C126.56 32.9077 126.624 32.639 126.745 32.3866C126.87 32.1351 127.066 31.9195 127.332 31.7399L127.807 32.4431C127.623 32.5667 127.49 32.7084 127.406 32.8682C127.324 33.0263 127.282 33.1953 127.279 33.375C127.277 33.5572 127.309 33.7404 127.373 33.9247C127.441 34.1098 127.532 34.2878 127.648 34.4587C127.814 34.7053 127.989 34.891 128.173 35.0157C128.357 35.1405 128.542 35.204 128.728 35.2062C128.916 35.2109 129.097 35.1547 129.27 35.0377Z" />
<path d="M137.117 44.5012L136.482 44.7821L135.073 41.5984L135.707 41.3176L137.117 44.5012ZM138.29 40.3189L132.407 42.9236L132.062 42.1439L137.944 39.5391L138.29 40.3189ZM139.946 44.0601L134.064 46.6648L133.72 45.8891L139.603 43.2844L139.946 44.0601Z" />
<path d="M141.414 57.4574L141.019 57.5504C140.548 57.661 140.113 57.7013 139.712 57.6714C139.312 57.6414 138.955 57.5467 138.643 57.3873C138.33 57.2278 138.068 57.0094 137.858 56.7321C137.648 56.4576 137.498 56.1297 137.409 55.7483C137.322 55.3784 137.311 55.0224 137.375 54.6804C137.441 54.3412 137.577 54.0277 137.785 53.7398C137.994 53.4548 138.27 53.2068 138.613 52.9959C138.957 52.785 139.364 52.6242 139.835 52.5137L140.23 52.4206C140.7 52.3101 141.135 52.2716 141.533 52.305C141.935 52.3407 142.292 52.4397 142.606 52.602C142.922 52.7637 143.185 52.9818 143.395 53.2562C143.606 53.5336 143.754 53.8572 143.841 54.2271C143.931 54.6085 143.943 54.9687 143.877 55.3079C143.813 55.65 143.674 55.9624 143.462 56.2452C143.254 56.5302 142.977 56.7753 142.632 56.9805C142.29 57.1879 141.885 57.3469 141.414 57.4574ZM140.825 56.7289L141.23 56.6339C141.602 56.5462 141.923 56.43 142.192 56.2852C142.461 56.1432 142.676 55.9762 142.836 55.7841C142.997 55.592 143.103 55.3781 143.153 55.1423C143.204 54.9094 143.198 54.6596 143.136 54.3929C143.075 54.1348 142.97 53.9129 142.82 53.7272C142.672 53.5443 142.482 53.4013 142.252 53.298C142.023 53.1976 141.755 53.1409 141.45 53.128C141.144 53.1152 140.805 53.1525 140.432 53.2402L140.028 53.3352C139.652 53.4235 139.329 53.5419 139.058 53.6902C138.79 53.8379 138.575 54.0096 138.412 54.2052C138.253 54.403 138.147 54.6169 138.095 54.847C138.044 55.0799 138.049 55.3254 138.11 55.5835C138.173 55.853 138.279 56.0807 138.429 56.2664C138.579 56.4522 138.768 56.5938 138.996 56.6913C139.229 56.7911 139.497 56.8445 139.801 56.8516C140.108 56.8581 140.45 56.8172 140.825 56.7289Z" />
<path d="M142.288 67.7198L142.204 66.0031L142.896 65.9691L142.981 67.6858C142.997 68.0182 143.063 68.2849 143.179 68.4856C143.295 68.6863 143.45 68.8292 143.643 68.9141C143.836 69.0019 144.053 69.0399 144.294 69.028C144.515 69.0172 144.72 68.9584 144.909 68.8518C145.099 68.7481 145.247 68.5904 145.355 68.3787C145.466 68.1668 145.513 67.8946 145.496 67.5622L145.422 66.044L139.693 66.3255L139.652 65.4738L146.077 65.158L146.194 67.5279C146.217 68.0134 146.154 68.4279 146.003 68.7716C145.851 69.1152 145.631 69.3811 145.343 69.5693C145.057 69.7573 144.724 69.8607 144.345 69.8793C143.933 69.8996 143.577 69.8301 143.277 69.6708C142.978 69.5115 142.743 69.2679 142.573 68.9401C142.407 68.612 142.312 68.2053 142.288 67.7198Z" />
</svg>
